<svg width="20" height="19" xmlns="http://www.w3.org/2000/svg">

 <g>
  <title>background</title>
  <rect fill="none" id="canvas_background" height="402" width="582" y="-1" x="-1"/>
 </g>
 <g>
  <title>Layer 1</title>
  <g id="surface1">
   <path id="svg_1" fill-rule="nonzero" fill="#e84219" d="m14.86719,7.625l1.17578,-0.07031c0,0 0.00391,-0.00391 0.00391,-0.00391c0.83984,-0.0664 1.58984,-0.48437 2.0625,-1.14453l0.92968,-1.29687c0.8086,-1.12891 1.1211,-2.49219 0.88282,-3.83985c-0.04688,-0.26562 -0.19141,-0.51172 -0.40235,-0.6875c-0.21094,-0.17969 -0.48047,-0.28515 -0.76172,-0.29687c-1.43359,-0.06641 -2.82031,0.39453 -3.90234,1.29297l-1.24219,1.03515c-0.63281,0.52735 -0.97656,1.28516 -0.94531,2.08594c0,0.00391 0,0.00391 0,0.00781l0.06641,1.11719c0.02734,0.4375 -0.14063,0.86719 -0.46094,1.17969l-9.69922,9.48828c-0.26172,0.25781 -0.39453,0.60937 -0.37891,0.99609c0.01953,0.42188 0.22266,0.83594 0.54688,1.10938c0.29297,0.24609 0.69531,0.38672 1.09375,0.38672c0.04297,0 0.08594,0 0.1289,-0.00391c0.40625,-0.03125 0.75782,-0.19922 0.9961,-0.47656l8.73047,-10.30469c0.28906,-0.33594 0.71875,-0.54688 1.17578,-0.57422zm-1.64063,0.21484l-8.73047,10.30469c-0.13281,0.15235 -0.33984,0.25 -0.57812,0.26953c-0.28516,0.01953 -0.57422,-0.07031 -0.77734,-0.24218c-0.20704,-0.17188 -0.33594,-0.4375 -0.34766,-0.70704c-0.00781,-0.23046 0.06641,-0.43359 0.21094,-0.57812l9.69922,-9.48438c0.4375,-0.42968 0.66406,-1.01562 0.6289,-1.60937l-0.0664,-1.11719c-0.02344,-0.625 0.25,-1.22265 0.74218,-1.63281l1.24219,-1.03516c0.96484,-0.80078 2.19922,-1.21093 3.47656,-1.15234c0.14844,0.00781 0.28907,0.0625 0.39844,0.15234c0.10547,0.09375 0.17969,0.21875 0.20703,0.35547c0.21094,1.20313 -0.0664,2.41797 -0.78906,3.42578l-0.92969,1.29688c-0.36719,0.51562 -0.95703,0.84375 -1.61328,0.89844l-1.17187,0.07031c-0.625,0.03906 -1.20704,0.32422 -1.60157,0.78515zm0,0"/>
   <path id="svg_2" fill-rule="nonzero" fill="#e84219" d="m19.44531,16.41797l-6.5039,-5.64063c-0.1211,-0.10546 -0.3125,-0.09765 -0.42188,0.01954c-0.11328,0.11718 -0.10547,0.29687 0.01953,0.40234l6.5,5.64062c0.15625,0.13672 0.24219,0.33594 0.25,0.5625c0.00391,0.27344 -0.10547,0.54297 -0.30078,0.72657c-0.1914,0.18359 -0.47656,0.29297 -0.76172,0.28515c-0.24218,-0.0039 -0.45312,-0.08593 -0.59375,-0.23437l-5.79687,-6.05469c-0.10938,-0.11719 -0.30078,-0.125 -0.42188,-0.01953c-0.12109,0.10547 -0.13281,0.28516 -0.01953,0.40234l5.79688,6.0586c0.2539,0.26172 0.61718,0.41015 1.02343,0.41797c0.00782,0 0.01954,0 0.03125,0c0.4336,0 0.86719,-0.16797 1.16797,-0.44922c0.30469,-0.29297 0.48047,-0.71875 0.47266,-1.14063c-0.00781,-0.38672 -0.16406,-0.73047 -0.44141,-0.97656zm0,0"/>
   <path id="svg_3" fill-rule="nonzero" fill="#e84219" d="m3.61719,7.57031c0.49609,0.4336 1.14062,0.6836 1.8164,0.69922c0,0 0.00391,0 0.00391,0l1.17969,0.00391c0.45703,0 0.89844,0.18359 1.21094,0.50781l0.51562,0.53906c0.05859,0.0625 0.14063,0.09375 0.22266,0.09375c0.07031,0 0.14453,-0.02343 0.20312,-0.07422c0.1211,-0.10546 0.12891,-0.28515 0.01953,-0.40234l-0.51953,-0.54297c-0.42187,-0.4375 -1.02344,-0.6914 -1.65234,-0.6914l-1.17188,-0.00391c-0.52343,-0.01563 -1.01953,-0.20313 -1.40625,-0.53906l-3.41406,-3.85938c-0.03516,-0.03906 -0.03125,-0.09765 0.00781,-0.13281c0.02344,-0.02344 0.05469,-0.02734 0.07032,-0.02734c0.01562,0 0.04687,0.0039 0.07421,0.02734l3.10547,2.95703c0.3086,0.29297 0.8086,0.29297 1.11328,0l0.36719,-0.34766l0.64844,-0.61718l0.36328,-0.34766c0.30859,-0.29297 0.30859,-0.76953 0,-1.05859l-3.10547,-2.95703c-0.03906,-0.03907 -0.03906,-0.10157 0,-0.14063c0.03906,-0.03516 0.09766,-0.03906 0.14063,-0.00391l4.05468,3.2461c0.35157,0.36719 0.55079,0.84375 0.5625,1.33984l0.00391,1.11719c0.00391,0.59766 0.26953,1.16797 0.73047,1.57031l0.55469,0.48438c0.125,0.10547 0.3125,0.09765 0.42578,-0.01953c0.10937,-0.11719 0.10156,-0.29688 -0.01953,-0.40235l-0.55469,-0.48047c-0.33984,-0.29687 -0.53516,-0.71875 -0.53516,-1.15234l-0.0039,-1.12109c0,-0.00391 0,-0.00391 0,-0.00782c-0.01563,-0.64062 -0.27735,-1.2539 -0.73438,-1.72656c-0.00781,-0.00781 -0.01953,-0.01953 -0.02734,-0.02734l-4.07031,-3.25782c-0.28125,-0.22656 -0.69141,-0.21093 -0.95313,0.03907c-0.27344,0.26172 -0.27344,0.68359 0,0.94531l3.10938,2.95703c0.07031,0.07031 0.07031,0.18359 0,0.25391l-0.15625,0.14453l-3.46094,-3.29688c-0.11719,-0.10937 -0.30469,-0.10937 -0.42188,0c-0.11718,0.11328 -0.11718,0.29297 0,0.40625l3.46094,3.29297l-0.22656,0.21485l-3.46094,-3.29688c-0.11719,-0.10937 -0.30469,-0.10937 -0.42187,0c-0.11719,0.11328 -0.11719,0.29297 0,0.40625l3.46093,3.29297l-0.15234,0.14453c-0.07422,0.07031 -0.19531,0.07031 -0.26563,0l-3.10546,-2.95312c-0.13282,-0.12891 -0.3125,-0.19922 -0.5,-0.19922c-0.1875,0 -0.36329,0.07031 -0.4961,0.19922c-0.25781,0.24609 -0.27734,0.63671 -0.03906,0.90234l3.42187,3.875c0.00782,0.01172 0.01954,0.01953 0.02735,0.02734zm0,0"/>
  </g>
 </g>
</svg>